<svg xmlns="http://www.w3.org/2000/svg" viewBox="0 0 64 64" fill="none" role="img" aria-labelledby="faviconTitle faviconDesc">
  <title id="faviconTitle">Ayush Singhal favicon</title>
  <desc id="faviconDesc">AS monogram favicon on a deep navy background with a blue accent.</desc>
  <defs>
    <linearGradient id="faviconBg" x1="10" y1="8" x2="54" y2="56" gradientUnits="userSpaceOnUse">
      <stop stop-color="#0F172A" />
      <stop offset="1" stop-color="#020617" />
    </linearGradient>
    <linearGradient id="faviconAccent" x1="18" y1="16" x2="47" y2="44" gradientUnits="userSpaceOnUse">
      <stop stop-color="#60A5FA" />
      <stop offset="1" stop-color="#2563EB" />
    </linearGradient>
  </defs>
  <rect x="4" y="4" width="56" height="56" rx="16" fill="url(#faviconBg)" />
  <rect x="4.5" y="4.5" width="55" height="55" rx="15.5" stroke="#3B82F6" stroke-opacity="0.18" />
  <path
    d="M16.5 45.5 25.8 18h4.4l9.3 27.5h-5.8l-1.8-5.8h-8.1L22 45.5h-5.5Zm8.7-10.5h5.2l-2.6-8.5-2.6 8.5Z"
    fill="#F8FAFC"
  />
  <path
    d="M38.4 37.4c1.5 1.6 3.5 2.5 5.8 2.5 2.2 0 3.7-.9 3.7-2.5 0-1.4-.9-2.1-4.4-3.2-4.6-1.4-7.2-3.5-7.2-8 0-4.9 3.9-8.4 9.4-8.4 3.4 0 6.2 1 8.5 3.1l-3.1 4.1c-1.7-1.4-3.5-2.1-5.5-2.1s-3.1.9-3.1 2.2c0 1.5 1 2.1 4.7 3.3 4.9 1.5 6.9 3.9 6.9 7.9 0 5.2-4 8.7-10 8.7-3.9 0-7.2-1.3-9.6-3.8l3.9-3.8Z"
    fill="url(#faviconAccent)"
  />
</svg>
